<svg xmlns="http://www.w3.org/2000/svg" style="display:none"><defs><style>.cls-1{fill:#6d6d6c;fill-rule:evenodd}</style><style>.cls-1{fill:#d3be84;fill-rule:evenodd}</style><style>.cls-1{fill:#464135;fill-rule:evenodd}</style><style>.cls-1{fill:#d3be84;fill-rule:evenodd}</style><style>.cls-1{fill:#64615e;fill-rule:evenodd}</style><style>.cls-1{fill:#64615e;fill-rule:evenodd}</style><style>.cls-1{fill:#64615e;fill-rule:evenodd}</style></defs><symbol id="icon-more" viewBox="0 0 22 20"><path id="Forma_1" data-name="Forma 1" class="cls-1" d="M175.767 3124.64l-6.286-6.4a.756.756 0 0 0-1.1 0 .769.769 0 0 0-.233.56v3.2h-2.75q-8.754 0-10.743 5.04a11.54 11.54 0 0 0-.65 4.16 15.28 15.28 0 0 0 1.559 5.64c.025.05.067.15.129.3s.117.26.166.37a1.587 1.587 0 0 0 .159.28.419.419 0 0 0 .344.21.342.342 0 0 0 .289-.13.452.452 0 0 0 .1-.31 2.637 2.637 0 0 0-.031-.33 2.856 2.856 0 0 1-.031-.29c-.041-.57-.061-1.08-.061-1.54a10.775 10.775 0 0 1 .215-2.26 6.736 6.736 0 0 1 .595-1.73 4.41 4.41 0 0 1 .983-1.27 5.675 5.675 0 0 1 1.3-.86 6.727 6.727 0 0 1 1.633-.54 15.141 15.141 0 0 1 1.89-.27c.635-.05 1.353-.07 2.155-.07h2.75v3.2a.765.765 0 0 0 .233.56.756.756 0 0 0 1.1 0l6.286-6.4a.789.789 0 0 0-.001-1.12z" transform="translate(-154 -3118)"/></symbol><symbol id="icon-next" viewBox="0 0 45.41 26.88"><path id="Forma_1" data-name="Forma 1" class="cls-1" d="M1631.31 4379.01h-43.62a1.506 1.506 0 0 1-.68-1.11 1.166 1.166 0 0 1 .68-.93h43.62a1.215 1.215 0 0 1 .68.96 1.447 1.447 0 0 1-.68 1.08zm-13.57 11.5a.989.989 0 0 1-.31-.98l12.33-11.6-12.45-13.07c-.21-.2.14-.37.34-.57a1.132 1.132 0 0 1 1.11-.16l13.07 12.99a.523.523 0 0 1 .16.37 3.714 3.714 0 0 1 .41.68l-13.64 12.68a1.087 1.087 0 0 1-1.02-.34z" transform="translate(-1587 -4364.03)"/></symbol><symbol id="icon-prev" viewBox="0 0 45.406 26.88"><path id="Forma_1_&#x43A;&#x43E;&#x43F;&#x438;&#x44F;_4" data-name="Forma 1 &#x43A;&#x43E;&#x43F;&#x438;&#x44F; 4" class="cls-1" d="M313.1 4379.01h43.62a1.509 1.509 0 0 0 .677-1.11 1.167 1.167 0 0 0-.677-.93H313.1a1.217 1.217 0 0 0-.678.96 1.451 1.451 0 0 0 .678 1.08zm13.565 11.5a.978.978 0 0 0 .313-.98l-12.329-11.6 12.453-13.07c.2-.2-.14-.37-.343-.57a1.136 1.136 0 0 0-1.112-.16l-13.072 12.99a.524.524 0 0 0-.152.37 3.358 3.358 0 0 0-.41.68l13.634 12.68a1.078 1.078 0 0 0 1.015-.34z" transform="translate(-312 -4364.03)"/></symbol><symbol id="social-icon-fa" viewBox="0 0 21 38"><path id="Forma_1" data-name="Forma 1" class="cls-1" d="M1752.21 4905.01l-5.04-.01c-5.66 0-9.31 3.67-9.31 9.35v4.31h-5.07a.783.783 0 0 0-.79.78v6.25a.781.781 0 0 0 .79.77h5.07v15.77a.781.781 0 0 0 .79.77h6.61a.788.788 0 0 0 .79-.77v-15.77h5.92a.781.781 0 0 0 .79-.77v-6.25a.764.764 0 0 0-.23-.55.787.787 0 0 0-.56-.23h-5.92v-3.65c0-1.76.43-2.65 2.76-2.65h3.4a.783.783 0 0 0 .79-.78v-5.8a.775.775 0 0 0-.79-.77z" transform="translate(-1732 -4905)"/></symbol><symbol id="social-icon-inst" viewBox="0 0 29 29"><path id="Forma_1" data-name="Forma 1" class="cls-1" d="M1802.94 4914h-10.88a9.065 9.065 0 0 0-9.06 9.06v10.88a9.065 9.065 0 0 0 9.06 9.06h10.88a9.065 9.065 0 0 0 9.06-9.06v-10.88a9.065 9.065 0 0 0-9.06-9.06zm6.34 19.94a6.342 6.342 0 0 1-6.34 6.34h-10.88a6.342 6.342 0 0 1-6.34-6.34v-10.88a6.342 6.342 0 0 1 6.34-6.34h10.88a6.342 6.342 0 0 1 6.34 6.34v10.88zm-11.78-12.69a7.25 7.25 0 1 0 7.25 7.25 7.255 7.255 0 0 0-7.25-7.25zm0 11.78a4.53 4.53 0 1 1 4.53-4.53 4.532 4.532 0 0 1-4.53 4.53zm7.79-13.29a.965.965 0 1 1-.96.97.965.965 0 0 1 .96-.97z" transform="translate(-1783 -4914)"/></symbol><symbol id="social-icon-vk" viewBox="0 0 42 24"><path id="Forma_1" data-name="Forma 1" class="cls-1" d="M1701.77 4940.68a2.427 2.427 0 0 0-.14-.28 21.948 21.948 0 0 0-4.17-4.84l-.05-.04-.02-.02-.02-.03h-.02a23.617 23.617 0 0 1-1.77-1.79 1.681 1.681 0 0 1-.31-1.78 16.187 16.187 0 0 1 1.97-2.87c.6-.77 1.07-1.39 1.42-1.86q3.78-5.04 3.28-6.44l-.13-.22a1.332 1.332 0 0 0-.68-.36 3.462 3.462 0 0 0-1.4-.06l-6.3.05a.787.787 0 0 0-.43.01c-.19.04-.29.07-.29.07l-.11.05-.08.07a.73.73 0 0 0-.24.23 1.266 1.266 0 0 0-.22.38 36.827 36.827 0 0 1-2.34 4.93c-.54.9-1.04 1.69-1.49 2.35a10.276 10.276 0 0 1-1.14 1.47 6.762 6.762 0 0 1-.83.76.789.789 0 0 1-.57.24c-.13-.03-.25-.06-.37-.09a1.425 1.425 0 0 1-.49-.54 2.372 2.372 0 0 1-.25-.85c-.04-.34-.07-.64-.08-.89s0-.6.01-1.05.03-.76.03-.92c0-.56.01-1.16.03-1.81s.04-1.16.05-1.54.02-.78.02-1.21a5.167 5.167 0 0 0-.07-.99 3.675 3.675 0 0 0-.23-.71 1.144 1.144 0 0 0-.45-.52 2.917 2.917 0 0 0-.73-.3 14.6 14.6 0 0 0-2.95-.28c-2.72-.03-4.46.14-5.23.52a2.879 2.879 0 0 0-.83.66c-.26.32-.3.5-.11.53a2.685 2.685 0 0 1 1.86.94l.13.26a4.746 4.746 0 0 1 .31 1.01 10.64 10.64 0 0 1 .19 1.6 15.559 15.559 0 0 1 0 2.74q-.1 1.14-.21 1.77a3.351 3.351 0 0 1-.29 1.03 3.471 3.471 0 0 1-.26.48.363.363 0 0 1-.11.11 1.507 1.507 0 0 1-.59.11 1.427 1.427 0 0 1-.75-.3 5.35 5.35 0 0 1-.9-.85 9.588 9.588 0 0 1-1.06-1.5 23.142 23.142 0 0 1-1.23-2.28l-.35-.63c-.22-.41-.52-1.01-.89-1.79s-.72-1.53-1.01-2.26a1.486 1.486 0 0 0-.52-.71l-.11-.06a1.769 1.769 0 0 0-.35-.19 2.73 2.73 0 0 0-.51-.14l-5.99.04a1.49 1.49 0 0 0-1.24.42l-.09.13a.633.633 0 0 0-.07.35 1.92 1.92 0 0 0 .13.59q1.32 3.09 2.86 5.96c1.02 1.92 1.92 3.46 2.68 4.62s1.53 2.28 2.31 3.31 1.31 1.7 1.57 2 .45.51.6.65l.54.53a13.16 13.16 0 0 0 1.55 1.26 25.1 25.1 0 0 0 2.25 1.45 12.366 12.366 0 0 0 2.87 1.16 9.907 9.907 0 0 0 3.2.36h2.51a1.8 1.8 0 0 0 1.16-.48l.09-.11a1.939 1.939 0 0 0 .16-.41 2.233 2.233 0 0 0 .08-.6 6.967 6.967 0 0 1 .14-1.7 4.6 4.6 0 0 1 .37-1.14 2.946 2.946 0 0 1 .47-.64 1.783 1.783 0 0 1 .37-.32c.08-.04.13-.06.18-.08a1.4 1.4 0 0 1 1.23.34 7.242 7.242 0 0 1 1.34 1.27c.41.51.91 1.07 1.49 1.7a10.45 10.45 0 0 0 1.53 1.4l.44.27a5.741 5.741 0 0 0 1.14.48 2.541 2.541 0 0 0 1.22.11l5.6-.09a2.554 2.554 0 0 0 1.29-.27 1.114 1.114 0 0 0 .55-.61 1.663 1.663 0 0 0 .01-.74 2.122 2.122 0 0 0-.16-.58z" transform="translate(-1660 -4919)"/></symbol><symbol id="social-icon-you" viewBox="0 0 48 33"><path id="Forma_1" data-name="Forma 1" class="cls-1" d="M1887.96 4913.18c-1.3-2.32-2.72-2.74-5.59-2.9-2.88-.2-10.1-.28-16.36-.28-6.28 0-13.51.08-16.38.27-2.87.17-4.29.59-5.6 2.91-1.34 2.31-2.03 6.3-2.03 13.31v.02c0 6.99.69 11 2.03 13.29 1.31 2.32 2.73 2.74 5.6 2.93 2.87.17 10.1.27 16.38.27 6.26 0 13.48-.1 16.36-.26 2.88-.2 4.29-.62 5.59-2.94 1.36-2.28 2.04-6.3 2.04-13.28v-.03c0-7.01-.68-11-2.04-13.31zM1860 4935.5v-18l15 9z" transform="translate(-1842 -4910)"/></symbol><symbol id="temp-icon-left-arrow" viewBox="0 0 31.494 31.494"><path d="M10.273 5.01a1.117 1.117 0 0 1 1.587 1.57l-8.047 8.047h26.554c.62 0 1.127.492 1.127 1.11 0 .62-.508 1.128-1.127 1.128H3.813l8.047 8.032c.43.444.43 1.16 0 1.587a1.112 1.112 0 0 1-1.587 0L.32 16.532a1.12 1.12 0 0 1 0-1.57l9.953-9.953z" fill="#1E201D"/></symbol><symbol id="temp-icon-right-arrow" viewBox="0 0 31.49 31.49"><path d="M21.205 5.007a1.117 1.117 0 0 0-1.587 1.57l8.047 8.048H1.11c-.618 0-1.11.493-1.11 1.112 0 .62.492 1.127 1.11 1.127h26.555l-8.047 8.032c-.43.444-.43 1.16 0 1.587.444.444 1.16.444 1.587 0l9.952-9.952a1.092 1.092 0 0 0 0-1.57l-9.952-9.95z" fill="#1E201D"/></symbol></svg>